<svg width="48" height="48" viewBox="0 0 48 48" fill="none" xmlns="http://www.w3.org/2000/svg">
<path opacity="0.5" fill-rule="evenodd" clip-rule="evenodd" d="M41.656 39.656C44 37.314 44 33.542 44 26V22C44 14.458 44 10.686 41.656 8.344C39.312 6.002 35.542 6 28 6H18V42H28C35.542 42 39.314 42 41.656 39.656Z" fill="#10B981"/>
<path d="M3.99998 22V26C3.99998 33.542 3.99998 37.314 6.34398 39.656C8.29198 41.606 12.728 41.934 18 41.988V6.01198C12.728 6.06598 8.29198 6.39398 6.34398 8.34398C3.99998 10.686 3.99998 14.458 3.99998 22ZM29.474 21.404C29.1014 21.2647 28.7993 20.9831 28.6343 20.6212C28.4693 20.2593 28.4548 19.8466 28.594 19.474L31.594 11.474C31.7335 11.1013 32.0153 10.7994 32.3774 10.6346C32.7396 10.4697 33.1523 10.4555 33.525 10.595C33.8976 10.7345 34.1996 11.0163 34.3644 11.3784C34.5292 11.7406 34.5435 12.1533 34.404 12.526L31.404 20.526C31.2647 20.8986 30.9831 21.2006 30.6212 21.3657C30.2593 21.5307 29.8466 21.5432 29.474 21.404ZM34.94 21.06C34.6591 20.7787 34.5013 20.3975 34.5013 20C34.5013 19.6025 34.6591 19.2212 34.94 18.94L35.88 18L34.94 17.06C34.675 16.7756 34.5308 16.3995 34.5376 16.0109C34.5445 15.6223 34.7019 15.2516 34.9767 14.9767C35.2516 14.7019 35.6223 14.5445 36.0109 14.5376C36.3995 14.5308 36.7756 14.675 37.06 14.94L39.06 16.94C39.3409 17.2212 39.4987 17.6025 39.4987 18C39.4987 18.3975 39.3409 18.7787 39.06 19.06L37.06 21.06C36.7787 21.3409 36.3975 21.4987 36 21.4987C35.6025 21.4987 35.2212 21.3409 34.94 21.06ZM28.06 17.06C27.7787 17.3409 27.3975 17.4987 27 17.4987C26.6025 17.4987 26.2212 17.3409 25.94 17.06L23.94 15.06C23.6591 14.7787 23.5013 14.3975 23.5013 14C23.5013 13.6025 23.6591 13.2212 23.94 12.94L25.94 10.94C26.0773 10.7926 26.2429 10.6744 26.4269 10.5924C26.6109 10.5104 26.8095 10.4663 27.0109 10.4628C27.2123 10.4592 27.4124 10.4963 27.5992 10.5717C27.7859 10.6472 27.9556 10.7595 28.0981 10.9019C28.2405 11.0443 28.3528 11.214 28.4282 11.4008C28.5037 11.5876 28.5407 11.7876 28.5372 11.989C28.5336 12.1904 28.4895 12.3891 28.4075 12.5731C28.3256 12.7571 28.2074 12.9227 28.06 13.06L27.12 14L28.06 14.94C28.3409 15.2212 28.4987 15.6025 28.4987 16C28.4987 16.3975 28.3409 16.7787 28.06 17.06Z" fill="#10B981"/>
</svg>
